<svg xmlns="http://www.w3.org/2000/svg" version="1.1" xmlns:xlink="http://www.w3.org/1999/xlink" xmlns:svgjs="http://svgjs.dev/svgjs" viewBox="0 0 1422 800"><g fill="hsl(172, 100%, 35%)"><path d="M84 155H134C162 155 184 177 184 205H134C106 205 84 183 84 155Z " transform="matrix(-0.2807933925886473,0.16871769168966347,-0.16871769168966347,-0.2807933925886473,201.99549911101815,207.9346399795416)"></path><path d="M1173 42H1223C1251 42 1273 64 1273 92H1223C1195 92 1173 70 1173 42Z " transform="matrix(0.020024340896374494,0.2288792637738835,-0.2288792637738835,0.020024340896374494,1213.845141756584,-214.26097043551664)"></path><path d="M179 448H229C257 448 279 470 279 498H229C201 498 179 476 179 448Z " transform="matrix(-0.17714144148759492,0.23507463262048764,-0.23507463262048764,-0.17714144148759492,380.7556913301499,502.9558109535407)"></path><path d="M1295 715H1345C1373 715 1395 737 1395 765H1345C1317 765 1295 743 1295 715Z " transform="matrix(-0.1216532060228306,0.24942603564904708,-0.24942603564904708,-0.1216532060228306,1693.1988284810022,494.5453545089264)"></path><path d="M692 613H742C770 613 792 635 792 663H742C714 663 692 641 692 613Z " transform="matrix(0.07658076125137764,0.1895440353978969,-0.1895440353978969,0.07658076125137764,806.106169735336,448.49980005638156)"></path><path d="M480 497H530C558 497 580 519 580 547H530C502 547 480 525 480 497Z " transform="matrix(0.048793659367760624,0.2113485583694943,-0.2113485583694943,0.048793659367760624,614.4633080039629,384.514973874197)"></path><path d="M1023 703H1073C1101 703 1123 725 1123 753H1073C1045 753 1023 731 1023 703Z " transform="matrix(-0.0041604823302787575,0.2383538730671231,-0.2383538730671231,-0.0041604823302787575,1250.9858171332548,475.2751253354199)"></path><path d="M358 509H408C436 509 458 531 458 559H408C380 559 358 537 358 509Z " transform="matrix(-0.008381956177263136,0.24002782009840787,-0.24002782009840787,-0.008381956177263136,539.5946940528731,440.5446139985081)"></path><path d="M721 244H771C799 244 821 266 821 294H771C743 294 721 272 721 244Z " transform="matrix(0.07369655569062147,0.19198609133523567,-0.19198609133523567,0.07369655569062147,765.8242141317093,101.1543500997561)"></path><path d="M-3 347H47C75 347 97 369 97 397H47C19 397 -3 375 -3 347Z " transform="matrix(-0.3594597841479051,0.050518778106088146,-0.050518778106088146,-0.3594597841479051,82.68759531041633,503.3446571320346)"></path><path d="M1308 456H1358C1386 456 1408 478 1408 506H1358C1330 506 1308 484 1308 456Z " transform="matrix(-0.1216532060228306,0.24942603564904708,-0.24942603564904708,-0.1216532060228306,1643.1789769261957,200.7946356855756)"></path><path d="M948 145H998C1026 145 1048 167 1048 195H998C970 195 948 173 948 145Z " transform="matrix(0.045711023381751266,0.2150534569368605,-0.2150534569368605,0.045711023381751266,988.9394863442785,-52.394223997884524)"></path><path d="M822 595H872C900 595 922 617 922 645H872C844 645 822 623 822 595Z " transform="matrix(0.06201866875040554,0.2028539250771645,-0.2028539250771645,0.06201866875040554,943.6891543974883,404.65980270746115)"></path><path d="M1181 423H1231C1259 423 1281 445 1281 473H1231C1203 473 1181 451 1181 423Z " transform="matrix(-0.06747457643669455,0.2518185474809338,-0.2518185474809338,-0.06747457643669455,1426.8759128650292,168.23997829460967)"></path><path d="M290 126H340C368 126 390 148 390 176H340C312 176 290 154 290 126Z " transform="matrix(-0.04861971209203437,0.25012673509839567,-0.25012673509839567,-0.04861971209203437,394.2998391111494,73.29848659244267)"></path></g><g fill="none" stroke-width="3" stroke="hsl(172, 100%, 35%)"><path d="M638 133H688C716 133 738 155 738 183H688C660 183 638 161 638 133Z " transform="matrix(0.0816726893127028,0.18343986361998432,-0.18343986361998432,0.0816726893127028,660.792688204818,18.88908891804374)"></path><path d="M96 282H146C174 282 196 304 196 332H146C118 332 96 310 96 282Z " transform="matrix(-0.2807933925886473,0.16871769168966347,-0.16871769168966347,-0.2807933925886473,238.79216666666917,368.57078853802386)"></path><path d="M366 722H416C444 722 466 744 466 772H416C388 772 366 750 366 722Z " transform="matrix(0.012208733213755344,0.23295650723567243,-0.23295650723567243,0.012208733213755344,584.9396778881253,640.9701692792851)"></path><path d="M879 477H929C957 477 979 499 979 527H929C901 527 879 505 879 477Z " transform="matrix(0.04912585407536319,0.2127874517310397,-0.2127874517310397,0.04912585407536319,990.1813823329695,279.6592785960318)"></path><path d="M623 719H673C701 719 723 741 723 769H673C645 769 623 747 623 719Z " transform="matrix(0.076481832340446,0.18929917775102725,-0.18929917775102725,0.076481832340446,762.366315081644,559.6991701122668)"></path><path d="M1163 284H1213C1241 284 1263 306 1263 334H1213C1185 334 1163 312 1163 284Z " transform="matrix(-0.05328044324006101,0.2506647775135491,-0.2506647775135491,-0.05328044324006101,1355.0845939018807,21.40728183724383)"></path><path d="M85 411H135C163 411 185 433 185 461H135C107 461 85 439 85 411Z " transform="matrix(-0.2807933925886473,0.16871769168966347,-0.16871769168966347,-0.2807933925886473,246.46802157616065,535.6490307905457)"></path><path d="M1018 265H1068C1096 265 1118 287 1118 315H1068C1040 315 1018 293 1018 265Z " transform="matrix(-0.0041604823302787575,0.2383538730671231,-0.2383538730671231,-0.0041604823302787575,1141.5660183182035,36.64460344009336)"></path><path d="M789 135H839C867 135 889 157 889 185H839C811 185 789 163 789 135Z " transform="matrix(0.07356168308398196,0.19163473618255236,-0.19163473618255236,0.07356168308398196,807.9433056817475,-12.551412950598547)"></path><path d="M793 365H843C871 365 893 387 893 415H843C815 415 793 393 793 365Z " transform="matrix(0.06474912679193129,0.19927732157400002,-0.19927732157400002,0.06474912679193129,866.1346415282619,196.7570584642648)"></path><path d="M547 616H597C625 616 647 638 647 666H597C569 666 547 644 547 616Z " transform="matrix(0.07085024838534305,0.1946594576014813,-0.1946594576014813,0.07085024838534305,679.4791140364997,479.3732945969108)"></path><path d="M260 21H310C338 21 360 43 360 71H310C282 71 260 49 260 21Z " transform="matrix(-0.07204173176474314,0.25123937591567774,-0.25123937591567774,-0.07204173176474314,343.8899481391916,-28.570286872681905)"></path><path d="M497 139H547C575 139 597 161 597 189H547C519 189 497 167 497 139Z " transform="matrix(0.06170081440407847,0.20181427035618404,-0.20181427035618404,0.06170081440407847,546.3471948593833,43.48866055289845)"></path><path d="M708 29H758C786 29 808 51 808 79H758C730 79 708 57 708 29Z " transform="matrix(0.09594283826788365,0.166177870502338,-0.166177870502338,0.09594283826788365,694.2489336000705,-77.14373910723793)"></path></g></svg>